<?xml version="1.0" encoding="utf-8"?>
<!-- Generator: Adobe Illustrator 16.0.0, SVG Export Plug-In . SVG Version: 6.00 Build 0)  -->
<!DOCTYPE svg PUBLIC "-//W3C//DTD SVG 1.1//EN" "http://www.w3.org/Graphics/SVG/1.1/DTD/svg11.dtd">
<svg version="1.1" id="Layer_1" xmlns="http://www.w3.org/2000/svg" xmlns:xlink="http://www.w3.org/1999/xlink" x="0px" y="0px"
	 width="126.497px" height="126.497px" viewBox="0 0 126.497 126.497" enable-background="new 0 0 126.497 126.497"
	 xml:space="preserve">
<g>
	<path fill="#5D5D5D" d="M96.563,47.371c0-1.396-0.306-2.763-1.015-3.956c-1.896-3.146-5.806-4.43-10.527-4.43
		c-2.482,0-5.326,0.462-8.295,1.147c-2.648-8.578-6.899-14.329-12.42-14.605c-5.507,0.276-9.743,5.982-12.392,14.485
		c-3.007-0.708-5.885-1.199-8.386-1.207c-4.647,0-8.474,1.274-10.338,4.37c-0.754,1.194-1.06,2.583-1.06,4.03
		c0.073,4.297,2.843,9.361,7.481,14.457c-4.699,5.087-7.521,10.166-7.594,14.487c0,1.416,0.322,2.76,1.028,3.954
		c1.85,3.147,5.753,4.437,10.514,4.437c2.489-0.006,5.332-0.477,8.309-1.155c2.648,8.579,6.9,14.338,12.437,14.614
		c5.497-0.276,9.734-5.982,12.383-14.487c2.999,0.702,5.863,1.186,8.362,1.193c4.647,0,8.475-1.269,10.354-4.357
		c0.71-1.214,1.045-2.588,1.045-4.036c-0.073-4.296-2.842-9.369-7.482-14.456C93.669,56.769,96.487,51.696,96.563,47.371z
		 M85.021,41.267c4.402,0,7.333,1.225,8.549,3.328c0.47,0.79,0.695,1.701,0.695,2.776c0.073,3.332-2.486,7.973-6.909,12.813
		c-2.328-2.35-5.042-4.669-8.079-6.922c-0.396-3.923-1.007-7.624-1.879-10.944C80.166,41.692,82.793,41.267,85.021,41.267z
		 M70.968,73.128c-2.253,1.32-4.507,2.455-6.729,3.5c-2.223-1.061-4.462-2.209-6.707-3.56c-2.164-1.275-4.169-2.641-6.086-4.036
		c-0.211-2.342-0.33-4.766-0.33-7.264c0-2.523,0.127-4.978,0.336-7.349c1.946-1.39,3.976-2.752,6.177-4.022
		c2.253-1.327,4.499-2.46,6.723-3.505c2.222,1.059,4.468,2.208,6.722,3.55c2.155,1.283,4.154,2.642,6.071,4.027
		c0.209,2.358,0.329,4.792,0.329,7.299c0,2.521-0.127,4.959-0.337,7.323C75.197,70.48,73.161,71.854,70.968,73.128z M76.75,72.151
		c-0.397,3.059-0.902,5.975-1.612,8.587c-2.625-0.732-5.356-1.68-8.222-2.917c1.732-0.866,3.471-1.694,5.215-2.717
		C73.735,74.15,75.265,73.149,76.75,72.151z M61.547,77.791c-2.828,1.193-5.529,2.119-8.125,2.827
		c-0.694-2.589-1.201-5.482-1.589-8.512c1.455,1.001,2.955,1.984,4.527,2.938C58.099,76.073,59.822,76.908,61.547,77.791z
		 M49.079,67.258c-2.334-1.835-4.415-3.707-6.258-5.581c1.843-1.849,3.932-3.686,6.266-5.505c-0.126,1.843-0.238,3.686-0.252,5.597
		C48.849,63.646,48.961,65.451,49.079,67.258z M51.841,51.367c0.395-3.059,0.902-5.976,1.61-8.584
		c2.619,0.736,5.356,1.686,8.229,2.923c-1.738,0.865-3.462,1.693-5.207,2.707C54.863,49.368,53.326,50.368,51.841,51.367z
		 M67.03,45.736c2.834-1.202,5.534-2.126,8.137-2.835c0.694,2.596,1.201,5.491,1.59,8.527c-1.456-1-2.955-1.985-4.529-2.941
		C70.484,47.452,68.761,46.608,67.03,45.736z M79.524,56.277c2.327,1.826,4.402,3.692,6.23,5.557
		c-1.836,1.843-3.911,3.677-6.237,5.483c0.125-1.821,0.238-3.657,0.253-5.549C79.756,59.887,79.643,58.082,79.524,56.277z
		 M55.227,37.388c2.521-6.235,5.97-9.652,9.08-9.577c3.103-0.075,6.543,3.342,9.05,9.577c0.418,1.015,0.761,2.187,1.119,3.327
		c-3.239,0.888-6.604,2.016-10.117,3.611c-3.551-1.649-6.944-2.803-10.212-3.723C54.497,39.508,54.823,38.373,55.227,37.388z
		 M34.413,47.206c0-1.119,0.239-2.044,0.741-2.836c1.192-2.058,4.064-3.265,8.375-3.265c2.248,0,4.903,0.444,7.7,1.088
		c-0.882,3.327-1.492,7.041-1.896,10.974c-3.045,2.223-5.766,4.519-8.11,6.847C36.86,55.165,34.339,50.525,34.413,47.206z
		 M43.562,82.245c-4.427,0-7.364-1.225-8.535-3.298c-0.486-0.798-0.725-1.739-0.725-2.797c-0.067-3.335,2.492-7.976,6.916-12.816
		c2.334,2.355,5.057,4.684,8.108,6.952c0.388,3.909,1.007,7.595,1.873,10.906C48.423,81.819,45.79,82.251,43.562,82.245z
		 M73.356,86.139c-2.507,6.229-5.947,9.66-9.05,9.556c-3.11,0.104-6.559-3.327-9.08-9.556c-0.418-1.015-0.761-2.187-1.126-3.336
		c3.246-0.879,6.61-2.005,10.123-3.602c3.552,1.646,6.945,2.797,10.221,3.722C74.094,84.021,73.759,85.161,73.356,86.139z
		 M94.152,76.313c0,1.092-0.237,2.046-0.723,2.881c-1.187,2.014-4.081,3.217-8.378,3.217c-2.238,0.006-4.886-0.442-7.676-1.084
		c0.88-3.325,1.498-7.05,1.896-10.989c3.036-2.222,5.743-4.511,8.078-6.831C91.714,68.348,94.229,72.987,94.152,76.313z"/>
	<circle fill="#5D5D5D" cx="63.755" cy="62.006" r="5.967"/>
</g>
</svg>
