<?xml version="1.0" encoding="utf-8"?>
<!-- Generator: Adobe Illustrator 16.0.0, SVG Export Plug-In . SVG Version: 6.00 Build 0)  -->
<!DOCTYPE svg PUBLIC "-//W3C//DTD SVG 1.1//EN" "http://www.w3.org/Graphics/SVG/1.1/DTD/svg11.dtd">
<svg version="1.1" id="Layer_1" xmlns="http://www.w3.org/2000/svg" xmlns:xlink="http://www.w3.org/1999/xlink" x="0px" y="0px"
	 width="126.497px" height="126.497px" viewBox="0 0 126.497 126.497" enable-background="new 0 0 126.497 126.497"
	 xml:space="preserve">
<path fill="#5D5D5D" d="M62.938,29.086c-0.616,0-1.92,0.052-1.952,0.058C42.579,30.135,27.952,45.024,27.5,63.586l0.032,2.028
	c0.634,19.024,16.164,34.303,35.37,34.303c19.595,0,35.466-15.896,35.466-35.473C98.368,44.834,82.531,29.086,62.938,29.086z
	 M96.268,63.586H79.747c-0.086-5.763-0.912-11.142-2.258-15.934c3.637-1.679,6.74-3.961,9.211-6.66
	C92.45,46.836,96.014,54.789,96.268,63.586z M62.901,31.528c4.861,1.172,9.328,6.699,12.077,14.913
	c-3.634,1.448-7.688,2.353-12.077,2.414V31.528z M60.868,31.195v17.536c-4.937-0.238-9.442-1.458-13.322-3.414
	C50.633,36.819,55.622,31.363,60.868,31.195z M45.684,44.295c-2.076-1.243-3.944-2.646-5.497-4.276
	c3.604-3.358,7.952-5.846,12.766-7.358C49.969,35.313,47.489,39.322,45.684,44.295z M60.868,50.758v12.828H44.433
	c0.077-6.032,1.014-11.545,2.502-16.299C51.054,49.301,55.774,50.52,60.868,50.758z M60.868,65.614v13.094
	c-5.016,0.229-9.673,1.4-13.751,3.35c-1.562-4.752-2.527-10.342-2.653-16.441h16.404V65.614z M60.868,80.726v16.772
	c-5.111-0.164-9.965-5.392-13.071-13.517C51.632,82.104,56.042,80.956,60.868,80.726z M53.2,96.282
	c-4.776-1.457-9.077-3.89-12.68-7.16c1.553-1.561,3.381-2.914,5.425-4.111C47.774,89.827,50.229,93.747,53.2,96.282z M62.901,97.161
	V80.6c4.301,0.048,8.316,0.872,11.895,2.273C72.042,90.769,67.646,96.027,62.901,97.161z M76.729,83.768
	c3.161,1.49,5.975,3.374,8.159,5.67c-4.856,4.277-10.905,7.113-17.64,8.01C71.249,94.872,74.543,90.096,76.729,83.768z
	 M62.901,78.581V65.614h14.795c-0.119,5.639-0.974,10.811-2.345,15.336C71.56,79.5,67.36,78.637,62.901,78.581z M62.901,63.586
	V50.884c4.538-0.064,8.792-0.982,12.641-2.471c1.291,4.498,2.106,9.607,2.186,15.173H62.901z M85.094,39.605
	c-2.194,2.4-4.92,4.492-8.165,6.051c-2.116-6.479-5.341-11.468-9.315-14.2C74.297,32.415,80.301,35.307,85.094,39.605z
	 M38.715,41.436c1.789,1.862,3.951,3.444,6.336,4.815c-1.601,5.116-2.552,11.017-2.646,17.335H29.526
	C29.766,54.986,33.201,47.241,38.715,41.436z M29.559,65.614h12.877c0.136,6.385,1.108,12.373,2.797,17.487
	c-2.345,1.33-4.459,2.868-6.241,4.673C33.369,82.008,29.874,74.225,29.559,65.614z M86.463,88.14
	c-2.473-2.614-5.615-4.753-9.18-6.384c1.442-4.814,2.305-10.287,2.432-16.143h16.521C95.904,74.397,92.292,82.342,86.463,88.14z"/>
</svg>
