<?xml version="1.0" encoding="utf-8"?>
<!-- Generator: Adobe Illustrator 16.0.0, SVG Export Plug-In . SVG Version: 6.00 Build 0)  -->
<!DOCTYPE svg PUBLIC "-//W3C//DTD SVG 1.1//EN" "http://www.w3.org/Graphics/SVG/1.1/DTD/svg11.dtd">
<svg version="1.1" id="Layer_1" xmlns="http://www.w3.org/2000/svg" xmlns:xlink="http://www.w3.org/1999/xlink" x="0px" y="0px"
	 width="126.497px" height="126.497px" viewBox="0 0 126.497 126.497" enable-background="new 0 0 126.497 126.497"
	 xml:space="preserve">
<path fill="#5D5D5D" d="M69.761,31.266c14.741,2.878,26.12,15.165,27.627,30.348h-6.492c-1.433-11.637-10.01-21.063-21.207-23.758
	l-0.039,3.739l-7.383-7.541l7.544-7.384L69.761,31.266L69.761,31.266z M86.356,72.553h3.73
	C87.145,83.15,78.115,91.222,67.004,92.766v6.504c14.688-1.643,26.58-12.535,29.732-26.717h4.543l-7.46-7.463L86.356,72.553
	L86.356,72.553z M55.92,103.497l0.032-4.767c-14.266-3.022-25.27-14.89-27.01-29.588h6.51c1.635,11.144,9.836,20.151,20.545,22.968
	l0.023-3.537l7.412,7.51L55.92,103.497L55.92,103.497z M24.724,58.253h4.651c2.911-14.518,14.953-25.739,29.881-27.41v6.504
	c-11.354,1.573-20.53,9.969-23.266,20.906h3.66l-7.463,7.46L24.724,58.253z"/>
</svg>
